<svg width="24" height="24" viewBox="0 0 24 24" fill="none" xmlns="http://www.w3.org/2000/svg">
<rect width="24" height="24" fill="#E5E5E5"/>
<g id="Homepage_edit_1" clip-path="url(#clip0_0_1)">
<rect width="1440" height="3385" transform="translate(-981 -686)" fill="#FFFEF8"/>
<g id="Group 7">
</g>
<rect id="Rectangle 18" x="-981" y="-627" width="1440" height="3326" fill="black" fill-opacity="0.3"/>
<rect id="Rectangle 19" x="-576" y="-26" width="630" height="688" rx="10" fill="white"/>
<g id="xmark">
<path id="Vector" d="M17.6546 8.05106C18.1235 7.58214 18.1235 6.82061 17.6546 6.35169C17.1856 5.88277 16.4241 5.88277 15.9552 6.35169L12.005 10.3056L8.05106 6.35544C7.58214 5.88652 6.82061 5.88652 6.35169 6.35544C5.88277 6.82436 5.88277 7.58589 6.35169 8.05481L10.3056 12.005L6.35544 15.9589C5.88652 16.4279 5.88652 17.1894 6.35544 17.6583C6.82436 18.1272 7.58589 18.1272 8.05481 17.6583L12.005 13.7044L15.9589 17.6546C16.4279 18.1235 17.1894 18.1235 17.6583 17.6546C18.1272 17.1856 18.1272 16.4241 17.6583 15.9552L13.7044 12.005L17.6546 8.05106Z" fill="black"/>
</g>
</g>
<defs>
<clipPath id="clip0_0_1">
<rect width="1440" height="3385" fill="white" transform="translate(-981 -686)"/>
</clipPath>
</defs>
</svg>
