<?xml version="1.0" encoding="UTF-8" standalone="no"?>
<svg
   xmlns:dc="http://purl.org/dc/elements/1.1/"
   xmlns:cc="http://creativecommons.org/ns#"
   xmlns:rdf="http://www.w3.org/1999/02/22-rdf-syntax-ns#"
   xmlns:svg="http://www.w3.org/2000/svg"
   xmlns="http://www.w3.org/2000/svg"
   xmlns:sodipodi="http://sodipodi.sourceforge.net/DTD/sodipodi-0.dtd"
   xmlns:inkscape="http://www.inkscape.org/namespaces/inkscape"
   inkscape:version="1.0 (4035a4fb49, 2020-05-01)"
   sodipodi:docname="deleteworks.svg"
   id="svg4"
   version="1.1"
   fill="none"
   viewBox="0 0 17 17"
   height="17"
   width="17">
  <metadata
     id="metadata10">
    <rdf:RDF>
      <cc:Work
         rdf:about="">
        <dc:format>image/svg+xml</dc:format>
        <dc:type
           rdf:resource="http://purl.org/dc/dcmitype/StillImage" />
        <dc:title></dc:title>
      </cc:Work>
    </rdf:RDF>
  </metadata>
  <defs
     id="defs8" />
  <sodipodi:namedview
     inkscape:current-layer="svg4"
     inkscape:window-maximized="1"
     inkscape:window-y="-8"
     inkscape:window-x="-8"
     inkscape:cy="12.559265"
     inkscape:cx="-6.7171862"
     inkscape:zoom="11.188925"
     showgrid="false"
     id="namedview6"
     inkscape:window-height="705"
     inkscape:window-width="1366"
     inkscape:pageshadow="2"
     inkscape:pageopacity="0"
     guidetolerance="10"
     gridtolerance="10"
     objecttolerance="10"
     borderopacity="1"
     bordercolor="#666666"
     pagecolor="#ffffff" />
  <rect
     inkscape:export-ydpi="96"
     inkscape:export-xdpi="96"
     y="0.32761151"
     x="0"
     id="rect2"
     fill="black"
     rx="2"
     height="17"
     width="17" />
  <path
     inkscape:export-ydpi="96"
     inkscape:export-xdpi="96"
     d="m 6.7160701,4.0403414 c 0.10848,-0.218973 0.33147,-0.35558 0.57456,-0.35558 h 2.4187498 c 0.24308,0 0.4660701,0.136607 0.5745501,0.35558 l 0.14464,0.287277 h 1.92857 c 0.35558,0 0.64286,0.287277 0.64286,0.642853 0,0.35558 -0.28728,0.64286 -0.64286,0.64286 H 4.6428571 c -0.35558,0 -0.642857,-0.28728 -0.642857,-0.64286 0,-0.355576 0.287277,-0.642853 0.642857,-0.642853 h 1.928573 z m -2.073213,2.21585 H 12.35714 v 6.4285706 c 0,0.70915 -0.57656,1.2857 -1.28571,1.2857 H 5.9285701 c -0.70915,0 -1.285713,-0.57655 -1.285713,-1.2857 z m 1.928573,1.2857102 c -0.17679,0 -0.32143,0.14465 -0.32143,0.32143 v 4.5000004 c 0,0.17679 0.14464,0.32143 0.32143,0.32143 0.17678,0 0.32143,-0.14464 0.32143,-0.32143 V 7.8633316 c 0,-0.17678 -0.14465,-0.32143 -0.32143,-0.32143 z m 1.9285701,0 c -0.17679,0 -0.32143,0.14465 -0.32143,0.32143 v 4.5000004 c 0,0.17679 0.14464,0.32143 0.32143,0.32143 0.17679,0 0.3214299,-0.14464 0.3214299,-0.32143 V 7.8633316 c 0,-0.17678 -0.14464,-0.32143 -0.3214299,-0.32143 z m 1.9285698,0 c -0.17678,0 -0.32143,0.14465 -0.32143,0.32143 v 4.5000004 c 0,0.17679 0.14465,0.32143 0.32143,0.32143 0.17679,0 0.32143,-0.14464 0.32143,-0.32143 V 7.8633316 c 0,-0.17678 -0.14464,-0.32143 -0.32143,-0.32143 z"
     fill="#ffffff"
     id="path2" />
</svg>
